<svg width="30" height="30" viewBox="0 0 30 30" fill="none" xmlns="http://www.w3.org/2000/svg">
<path d="M20.1822 8.0587C19.7935 7.76234 19.7189 7.20704 20.0152 6.81842C20.3115 6.42981 20.8669 6.35504 21.2554 6.65141C23.7999 8.59194 25.3241 11.6031 25.3241 14.8652C25.3241 20.2814 21.1536 24.7233 15.8488 25.1549L16.734 26.0386L16.8197 26.1378C17.0767 26.4842 17.0481 26.9759 16.734 27.29C16.3885 27.6356 15.8281 27.6356 15.4825 27.29L13.1227 24.9302L13.0371 24.8309C12.78 24.4845 12.8085 23.9929 13.1227 23.6788L13.5156 23.2859C13.9977 23.3703 14.4939 23.4144 15.0002 23.4144C15.3184 23.4144 15.6326 23.397 15.9419 23.363L15.936 23.3689C20.2201 22.9027 23.5542 19.2734 23.5542 14.8652C23.5542 12.1611 22.2922 9.66794 20.1822 8.0587ZM13.2658 3.69194C12.9202 3.34636 12.9202 2.78604 13.2658 2.44046C13.6114 2.09488 14.1718 2.09488 14.5174 2.44046L16.8772 4.80027C17.2228 5.14585 17.2228 5.70616 16.8772 6.05175L16.4839 6.44498C16.002 6.36067 15.5062 6.31669 15.0002 6.31669C14.6811 6.31669 14.3662 6.33418 14.0563 6.36823L14.0627 6.36168C9.77924 6.82845 6.44564 10.4575 6.44564 14.8652C6.44564 17.4518 7.5995 19.8479 9.55598 21.464C9.93278 21.7752 9.98592 22.3331 9.67467 22.7098C9.36341 23.0867 8.80563 23.1398 8.42883 22.8285C6.06955 20.8797 4.67578 17.9855 4.67578 14.8652C4.67578 9.44957 8.84567 5.00785 14.1499 4.57557L13.2658 3.69194ZM18.5754 13.7211C18.921 13.3755 18.921 12.8153 18.5754 12.4696C18.2298 12.1241 17.6696 12.1241 17.324 12.4696L13.82 15.9735L12.6759 14.8295C12.3303 14.4839 11.77 14.4839 11.4244 14.8295C11.0789 15.1751 11.0789 15.7353 11.4244 16.0809L13.1943 17.8507C13.5399 18.1963 14.1001 18.1963 14.4457 17.8507L18.5754 13.7211ZM14.9999 21.9447C18.9098 21.9447 22.0794 18.7751 22.0794 14.8652C22.0794 10.9554 18.9098 7.78582 14.9999 7.78582C11.0901 7.78582 7.92052 10.9554 7.92052 14.8652C7.92052 18.7751 11.0901 21.9447 14.9999 21.9447ZM14.9999 20.1748C12.0675 20.1748 9.69037 17.7977 9.69037 14.8652C9.69037 11.9328 12.0675 9.55567 14.9999 9.55567C17.9324 9.55567 20.3095 11.9328 20.3095 14.8652C20.3095 17.7977 17.9324 20.1748 14.9999 20.1748Z" fill="#0B2533"/>
</svg>
